<svg id="svg" version="1.1" xmlns="http://www.w3.org/2000/svg" viewBox="0 0 865 323" style="display: block;"><path d="M0 0 C285.45 0 570.9 0 865 0 C865 106.59 865 213.18 865 323 C579.55 323 294.1 323 0 323 C0 216.41 0 109.82 0 0 Z " transform="translate(0,0)" style="fill: #000000;"/><path d="M0 0 C0.77444458 -0.00686325 1.54888916 -0.0137265 2.34680176 -0.02079773 C4.90326337 -0.03907895 7.45911214 -0.03522689 10.015625 -0.02954102 C11.79394735 -0.03410183 13.57226793 -0.03940711 15.35058594 -0.04542542 C19.07624476 -0.05435883 22.80168924 -0.05193038 26.52734375 -0.04199219 C31.30258572 -0.03049563 36.07708898 -0.05072306 40.85223389 -0.07990932 C44.5239736 -0.09825059 48.19553555 -0.09798315 51.86730957 -0.0922718 C53.62798093 -0.09211837 55.38866417 -0.09818099 57.14929199 -0.11056328 C59.61041712 -0.12543467 62.07016801 -0.11482622 64.53125 -0.09765625 C65.6223407 -0.1121582 65.6223407 -0.1121582 66.73547363 -0.12695312 C70.15930776 -0.07691161 71.96310178 0.17271953 74.71777344 2.27915955 C76.265625 4.40405273 76.265625 4.40405273 76.765625 6.90405273 C76.09122657 10.27604488 74.96910813 11.29911713 72.265625 13.40405273 C69.08917236 13.8850708 69.08917236 13.8850708 65.29394531 13.8581543 C64.6008577 13.8587384 63.90777008 13.85932251 63.19367981 13.85992432 C60.90985485 13.85714442 58.62734603 13.8260598 56.34375 13.79467773 C54.75763665 13.78721494 53.17151406 13.78152219 51.58538818 13.77752686 C47.41601997 13.76227338 43.24721144 13.7229946 39.07806396 13.67871094 C34.07295803 13.63054709 29.06766467 13.61222279 24.06239319 13.58889771 C16.46308151 13.55014275 8.86499724 13.47348862 1.265625 13.40405273 C1.265625 30.23405273 1.265625 47.06405273 1.265625 64.40405273 C5.61105469 64.34604492 9.95648438 64.28803711 14.43359375 64.22827148 C17.90413443 64.19610395 21.37463284 64.1689947 24.84523773 64.14530182 C28.50593607 64.11892563 32.16605318 64.08369658 35.82641602 64.02685547 C39.35371448 63.97242508 42.88045027 63.94260971 46.40813637 63.92966652 C48.40518902 63.91596635 50.40201606 63.8769498 52.39872742 63.83757019 C62.50007875 63.83444556 62.50007875 63.83444556 65.6262207 66.77050781 C67.265625 69.40405273 67.265625 69.40405273 67.328125 72.02905273 C66.03253424 74.92507913 64.98440039 75.78962957 62.265625 77.40405273 C59.46881104 77.76481628 59.46881104 77.76481628 56.21191406 77.74462891 C54.99095032 77.74440231 53.76998657 77.74417572 52.51202393 77.74394226 C51.19836853 77.7284584 49.88471313 77.71297455 48.53125 77.69702148 C47.16933662 77.69142337 45.80741719 77.68715429 44.44549561 77.68415833 C40.86805421 77.67272635 37.29098058 77.6432739 33.71368408 77.61004639 C30.06047632 77.57930965 26.40720713 77.56548076 22.75390625 77.55053711 C15.59082146 77.51999525 8.42874542 77.46127293 1.265625 77.40405273 C1.265625 95.88405273 1.265625 114.36405273 1.265625 133.40405273 C6.42832031 133.36924805 11.59101562 133.33444336 16.91015625 133.29858398 C20.17774566 133.28325822 23.44529086 133.26881661 26.71289062 133.25756836 C31.90121648 133.23962378 37.08938374 133.21837879 42.27758789 133.17773438 C46.45970588 133.14517609 50.64165385 133.12720721 54.82388878 133.11942101 C56.42072922 133.11387112 58.01756019 133.10303367 59.61432838 133.08686256 C61.84831594 133.06513465 64.08159788 133.06208378 66.31567383 133.06347656 C67.58808426 133.05681473 68.86049469 133.05015289 70.17146301 133.04328918 C73.265625 133.40405273 73.265625 133.40405273 75.1726532 134.73783875 C76.90708205 137.38194138 76.71312003 139.33551537 76.265625 142.40405273 C73.82744405 145.04211791 72.33274624 145.39682123 68.72972107 145.78500366 C67.2944502 145.80278814 65.85891649 145.80404203 64.42358398 145.79223633 C63.24487732 145.80012177 63.24487732 145.80012177 62.0423584 145.8081665 C59.44860884 145.8213553 56.8554744 145.81263344 54.26171875 145.80249023 C52.45858136 145.80451109 50.65544477 145.80742263 48.85231018 145.81118774 C45.07537038 145.8156094 41.29864355 145.8091844 37.52172852 145.79516602 C32.67699228 145.77806192 27.83275417 145.78792399 22.98803616 145.80588341 C19.2657342 145.81671508 15.54355069 145.81327797 11.82124519 145.80550003 C10.03463749 145.80349695 8.24801908 145.80596108 6.46142387 145.81293869 C3.9667491 145.82054446 1.4728857 145.80896236 -1.02172852 145.79223633 C-1.76206833 145.79830902 -2.50240814 145.80438171 -3.2651825 145.81063843 C-8.23795334 145.74876514 -8.23795334 145.74876514 -10.42320251 144.23134041 C-12.24978427 141.68576356 -12.11461102 139.90630209 -12.12205505 136.78649902 C-12.13195969 135.6171431 -12.14186432 134.44778717 -12.15206909 133.24299622 C-12.14531662 131.31661568 -12.14531662 131.31661568 -12.13842773 129.35131836 C-12.14412942 127.986297 -12.1510929 126.62128041 -12.15922546 125.25627136 C-12.17719337 121.54761962 -12.17598191 117.839204 -12.17028308 114.13052177 C-12.16719681 111.03640294 -12.1732773 107.94232983 -12.17932183 104.84821749 C-12.19337701 97.55054719 -12.19179721 90.25299394 -12.18041992 82.95532227 C-12.16893389 75.42130734 -12.18302002 67.88764818 -12.2098164 60.35368013 C-12.23195029 53.8890572 -12.23861614 47.42454613 -12.23273998 40.95988798 C-12.22936407 37.09709881 -12.23182731 33.23453779 -12.24899101 29.3717804 C-12.26442185 25.7404358 -12.26054844 22.1096197 -12.24168587 18.47829628 C-12.23622376 16.50722568 -12.25054284 14.53613157 -12.26538086 12.56510925 C-12.25554672 11.39575333 -12.24571259 10.2263974 -12.23558044 9.02160645 C-12.23537116 8.00323448 -12.23516188 6.98486252 -12.23494625 5.9356308 C-11.734375 3.40405273 -11.734375 3.40405273 -9.92125034 1.57718563 C-6.69948315 -0.15110725 -3.56672627 -0.02207353 0 0 Z " transform="translate(115.734375,45.595947265625)" style="fill: #44ACD6;"/><path d="M0 0 C0.76469101 -0.00540298 1.52938202 -0.01080597 2.31724548 -0.01637268 C4.84144969 -0.02886584 7.36451458 -0.01236595 9.88867188 0.00561523 C11.64457255 0.00546026 13.40047357 0.00397152 15.15637207 0.00120544 C18.83503353 -0.00017881 22.51330522 0.01238369 26.19189453 0.03515625 C30.90652365 0.06354108 35.62050515 0.06080397 40.33518219 0.04806614 C43.96060718 0.0411101 47.58588256 0.04889736 51.21128845 0.06132317 C52.94961473 0.06583841 54.68795706 0.06617383 56.42628479 0.06225777 C58.85613915 0.05934625 61.28510206 0.07584885 63.71484375 0.09765625 C64.43288681 0.0931546 65.15092987 0.08865295 65.89073181 0.08401489 C68.94130104 0.12948919 71.09261193 0.36028751 73.80383301 1.80821228 C75.35742188 3.50170898 75.35742188 3.50170898 75.85742188 7.00170898 C75.35742188 10.50170898 75.35742188 10.50170898 73.75616455 12.19917297 C70.52871817 13.95170157 68.14465111 13.86207173 64.47753906 13.84228516 C63.79420502 13.84272324 63.11087097 13.84316132 62.40682983 13.84361267 C60.15569148 13.8415282 57.90530458 13.81821446 55.65429688 13.79467773 C54.09060066 13.78908054 52.52689917 13.78481102 50.9631958 13.78181458 C46.85312301 13.77037546 42.74336967 13.74091654 38.63342285 13.70770264 C33.69918418 13.67157751 28.76483852 13.65783613 23.83050537 13.64034271 C16.33925555 13.61127837 8.84870628 13.55378537 1.35742188 13.50170898 C1.35742188 30.33170898 1.35742188 47.16170898 1.35742188 64.50170898 C5.71445312 64.4669043 10.07148438 64.43209961 14.56054688 64.39624023 C18.03662355 64.3769447 21.51268507 64.36067726 24.98878479 64.34645844 C28.65718345 64.33062225 32.32537388 64.30946322 35.99365234 64.27539062 C39.52739269 64.24277341 43.06093121 64.2248511 46.59481049 64.21707726 C48.59788169 64.20884368 50.6008718 64.18542791 52.6038208 64.16181946 C53.82478455 64.16159286 55.04574829 64.16136627 56.30371094 64.16113281 C57.37848694 64.15447098 58.45326294 64.14780914 59.56060791 64.14094543 C62.73775187 64.55076809 64.11852291 65.23404815 66.35742188 67.50170898 C66.86762916 71.58336725 66.6710399 73.03128195 64.35742188 76.50170898 C61.72518921 76.86247253 61.72518921 76.86247253 58.34716797 76.84228516 C57.08601166 76.84205856 55.82485535 76.84183197 54.52548218 76.84159851 C53.14393767 76.82627743 51.76239675 76.81062942 50.38085938 76.79467773 C48.97124685 76.78908331 47.5616285 76.78481249 46.15200806 76.78181458 C42.43973723 76.77035353 38.72781788 76.74087602 35.01568604 76.70770264 C31.22860469 76.67702858 27.44146661 76.66331498 23.65429688 76.64819336 C16.22184488 76.6160071 8.7896826 76.56479608 1.35742188 76.50170898 C1.36630432 77.30715149 1.37518677 78.11259399 1.38433838 78.94244385 C1.46450192 86.53469444 1.52539485 94.12673971 1.56467056 101.71930313 C1.58554157 105.62270417 1.61384944 109.52575538 1.65917969 113.42895508 C1.70265615 117.19612819 1.72656265 120.96296493 1.73693085 124.73036957 C1.74431911 126.16731817 1.75874694 127.60424845 1.7803421 129.04105377 C1.8093939 131.05412324 1.81105592 133.06753151 1.81152344 135.08081055 C1.82040588 136.22664612 1.82928833 137.37248169 1.83843994 138.55303955 C1.25028813 142.15844521 0.24377918 143.3266992 -2.64257812 145.50170898 C-5.70507813 146.00170898 -5.70507813 146.00170898 -8.64257812 145.50170898 C-11.6877407 142.42270775 -12.01995866 140.09117201 -12.03025818 135.84655762 C-12.04016281 134.69410049 -12.05006744 133.54164337 -12.06027222 132.35426331 C-12.05577057 131.09387741 -12.05126892 129.83349152 -12.04663086 128.53491211 C-12.05233451 127.19106987 -12.05929876 125.84723247 -12.06742859 124.50340271 C-12.0853746 120.85672324 -12.08418915 117.2102842 -12.0784862 113.56357384 C-12.07539683 110.51920541 -12.08148389 107.47488333 -12.08752495 104.43052149 C-12.10157289 97.2492961 -12.10000631 90.06818967 -12.08862305 82.88696289 C-12.07713735 75.47734489 -12.09122422 68.06808865 -12.11801952 60.65851831 C-12.14016508 54.29661842 -12.14681664 47.93483219 -12.14094311 41.57289648 C-12.13757005 37.77324606 -12.14001166 33.97382762 -12.15719414 30.17420959 C-12.17264356 26.60194167 -12.1687308 23.0302105 -12.14988899 19.45796394 C-12.14443685 17.52168575 -12.15873187 15.58538357 -12.17358398 13.64915466 C-12.16374985 12.49669754 -12.15391571 11.34424042 -12.14378357 10.15686035 C-12.14357429 9.15545769 -12.143365 8.15405502 -12.14314938 7.12230682 C-10.85815517 0.39508662 -5.92227661 -0.07973949 0 0 Z " transform="translate(427.642578125,45.498291015625)" style="fill: #44ABD4;"/><path d="M0 0 C0.76469101 -0.00540298 1.52938202 -0.01080597 2.31724548 -0.01637268 C4.84144969 -0.02886584 7.36451458 -0.01236595 9.88867188 0.00561523 C11.64457255 0.00546026 13.40047357 0.00397152 15.15637207 0.00120544 C18.83503353 -0.00017881 22.51330522 0.01238369 26.19189453 0.03515625 C30.90652365 0.06354108 35.62050515 0.06080397 40.33518219 0.04806614 C43.96060718 0.0411101 47.58588256 0.04889736 51.21128845 0.06132317 C52.94961473 0.06583841 54.68795706 0.06617383 56.42628479 0.06225777 C58.85613915 0.05934625 61.28510206 0.07584885 63.71484375 0.09765625 C64.43288681 0.0931546 65.15092987 0.08865295 65.89073181 0.08401489 C68.94130104 0.12948919 71.09261193 0.36028751 73.80383301 1.80821228 C75.35742188 3.50170898 75.35742188 3.50170898 75.85742188 7.00170898 C75.35742188 10.50170898 75.35742188 10.50170898 73.75616455 12.19917297 C70.52871817 13.95170157 68.14465111 13.86207173 64.47753906 13.84228516 C63.79420502 13.84272324 63.11087097 13.84316132 62.40682983 13.84361267 C60.15569148 13.8415282 57.90530458 13.81821446 55.65429688 13.79467773 C54.09060066 13.78908054 52.52689917 13.78481102 50.9631958 13.78181458 C46.85312301 13.77037546 42.74336967 13.74091654 38.63342285 13.70770264 C33.69918418 13.67157751 28.76483852 13.65783613 23.83050537 13.64034271 C16.33925555 13.61127837 8.84870628 13.55378537 1.35742188 13.50170898 C1.35742188 30.33170898 1.35742188 47.16170898 1.35742188 64.50170898 C5.71445312 64.4669043 10.07148438 64.43209961 14.56054688 64.39624023 C18.03662355 64.3769447 21.51268507 64.36067726 24.98878479 64.34645844 C28.65718345 64.33062225 32.32537388 64.30946322 35.99365234 64.27539062 C39.52739269 64.24277341 43.06093121 64.2248511 46.59481049 64.21707726 C48.59788169 64.20884368 50.6008718 64.18542791 52.6038208 64.16181946 C53.82478455 64.16159286 55.04574829 64.16136627 56.30371094 64.16113281 C57.37848694 64.15447098 58.45326294 64.14780914 59.56060791 64.14094543 C62.73775187 64.55076809 64.11852291 65.23404815 66.35742188 67.50170898 C66.86762916 71.58336725 66.6710399 73.03128195 64.35742188 76.50170898 C61.72518921 76.86247253 61.72518921 76.86247253 58.34716797 76.84228516 C57.08601166 76.84205856 55.82485535 76.84183197 54.52548218 76.84159851 C53.14393767 76.82627743 51.76239675 76.81062942 50.38085938 76.79467773 C48.97124685 76.78908331 47.5616285 76.78481249 46.15200806 76.78181458 C42.43973723 76.77035353 38.72781788 76.74087602 35.01568604 76.70770264 C31.22860469 76.67702858 27.44146661 76.66331498 23.65429688 76.64819336 C16.22184488 76.6160071 8.7896826 76.56479608 1.35742188 76.50170898 C1.36630432 77.30715149 1.37518677 78.11259399 1.38433838 78.94244385 C1.46450192 86.53469444 1.52539485 94.12673971 1.56467056 101.71930313 C1.58554157 105.62270417 1.61384944 109.52575538 1.65917969 113.42895508 C1.70265615 117.19612819 1.72656265 120.96296493 1.73693085 124.73036957 C1.74431911 126.16731817 1.75874694 127.60424845 1.7803421 129.04105377 C1.8093939 131.05412324 1.81105592 133.06753151 1.81152344 135.08081055 C1.82040588 136.22664612 1.82928833 137.37248169 1.83843994 138.55303955 C1.25028813 142.15844521 0.24377918 143.3266992 -2.64257812 145.50170898 C-5.70507813 146.00170898 -5.70507813 146.00170898 -8.64257812 145.50170898 C-11.6877407 142.42270775 -12.01995866 140.09117201 -12.03025818 135.84655762 C-12.04016281 134.69410049 -12.05006744 133.54164337 -12.06027222 132.35426331 C-12.05577057 131.09387741 -12.05126892 129.83349152 -12.04663086 128.53491211 C-12.05233451 127.19106987 -12.05929876 125.84723247 -12.06742859 124.50340271 C-12.0853746 120.85672324 -12.08418915 117.2102842 -12.0784862 113.56357384 C-12.07539683 110.51920541 -12.08148389 107.47488333 -12.08752495 104.43052149 C-12.10157289 97.2492961 -12.10000631 90.06818967 -12.08862305 82.88696289 C-12.07713735 75.47734489 -12.09122422 68.06808865 -12.11801952 60.65851831 C-12.14016508 54.29661842 -12.14681664 47.93483219 -12.14094311 41.57289648 C-12.13757005 37.77324606 -12.14001166 33.97382762 -12.15719414 30.17420959 C-12.17264356 26.60194167 -12.1687308 23.0302105 -12.14988899 19.45796394 C-12.14443685 17.52168575 -12.15873187 15.58538357 -12.17358398 13.64915466 C-12.16374985 12.49669754 -12.15391571 11.34424042 -12.14378357 10.15686035 C-12.14357429 9.15545769 -12.143365 8.15405502 -12.14314938 7.12230682 C-10.85815517 0.39508662 -5.92227661 -0.07973949 0 0 Z " transform="translate(271.642578125,45.498291015625)" style="fill: #44ABD4;"/><path d="M0 0 C1.4835347 -0.00788544 1.4835347 -0.00788544 2.99703979 -0.01593018 C6.26771822 -0.0291387 9.53791033 -0.02038885 12.80859375 -0.01025391 C15.08016046 -0.01227439 17.35172653 -0.01518561 19.62329102 -0.01895142 C24.38466567 -0.02337593 29.14587152 -0.01693945 33.90722656 -0.00292969 C40.01407813 0.01416209 46.12053416 0.00432162 52.22737122 -0.01364708 C56.91820258 -0.02448135 61.60893999 -0.02104017 66.29977417 -0.0132637 C68.55166673 -0.01126072 70.8035678 -0.0137244 73.05545044 -0.02070236 C76.20125974 -0.02831079 79.34642615 -0.01672068 82.4921875 0 C83.89185257 -0.00910904 83.89185257 -0.00910904 85.3197937 -0.0184021 C91.56155921 0.04314149 91.56155921 0.04314149 94.82836914 1.68978882 C96.24609375 3.38818359 96.24609375 3.38818359 96.68359375 6.95068359 C96.53921875 8.08505859 96.39484375 9.21943359 96.24609375 10.38818359 C93.08883756 12.49302105 92.37234764 12.6353895 88.7746582 12.61523438 C87.42359734 12.61500778 87.42359734 12.61500778 86.04524231 12.61477661 C85.0764061 12.60445404 84.10756989 12.59413147 83.109375 12.58349609 C81.61750923 12.57925125 81.61750923 12.57925125 80.09550476 12.57492065 C76.91641245 12.56371848 73.73760103 12.53861373 70.55859375 12.51318359 C68.40430094 12.50315385 66.25000372 12.49402799 64.09570312 12.48583984 C58.81240403 12.46377906 53.52926896 12.43030115 48.24609375 12.38818359 C48.24978092 13.04932789 48.25346809 13.71047218 48.257267 14.39165115 C48.34558093 30.47422448 48.41178515 46.55671353 48.45334244 62.63946915 C48.4739731 70.41696121 48.50210313 78.19429147 48.54785156 85.97167969 C48.58770414 92.74998035 48.6135229 99.52816384 48.62244773 106.3065784 C48.62766524 109.89619623 48.63993814 113.48547886 48.66901398 117.07498932 C48.70119999 121.08090625 48.7020542 125.08623938 48.70019531 129.09228516 C48.71457642 130.28414932 48.72895752 131.47601349 48.74377441 132.70399475 C48.73827576 133.79491928 48.7327771 134.88584381 48.72711182 136.00982666 C48.73079899 136.95742985 48.73448616 137.90503304 48.73828506 138.88135147 C48.09445474 142.1605124 46.84726705 143.35283066 44.24609375 145.38818359 C41.11114321 145.83603367 39.20840668 146.0812728 36.58504772 144.19184399 C34.76145084 141.73533724 34.8765208 140.13723423 34.8853302 137.09211731 C34.88120621 135.99415329 34.87708221 134.89618927 34.87283325 133.76495361 C34.88361908 132.56014343 34.89440491 131.35533325 34.90551758 130.11401367 C34.9050795 128.84561142 34.90464142 127.57720917 34.90419006 126.27037048 C34.90332838 122.79119307 34.92098174 119.31232517 34.94191194 115.83321977 C34.96065014 112.19772293 34.96242691 108.5622192 34.96598816 104.92668152 C34.97531705 98.04184886 34.99994217 91.1571589 35.03003663 84.27238911 C35.06355444 76.43452025 35.08006004 68.59664462 35.09512293 60.75872195 C35.12649106 44.63512559 35.17926786 28.5116728 35.24609375 12.38818359 C34.39164925 12.39817635 34.39164925 12.39817635 33.51994324 12.40837097 C27.59920894 12.47466478 21.67857982 12.51995927 15.75756836 12.55297852 C13.54691283 12.56807884 11.33628732 12.58856069 9.12573242 12.61450195 C5.95093382 12.65083014 2.77653078 12.66789743 -0.3984375 12.68115234 C-1.38914749 12.6966362 -2.37985748 12.71212006 -3.40058899 12.72807312 C-4.32131699 12.72829971 -5.24204498 12.72852631 -6.19067383 12.72875977 C-7.00119705 12.7354216 -7.81172028 12.74208344 -8.64680481 12.74894714 C-11.29248607 12.29597163 -12.16407827 11.52078535 -13.75390625 9.38818359 C-14.19140625 6.38818359 -14.19140625 6.38818359 -13.75390625 3.38818359 C-10.15646805 -0.83223959 -5.0933665 -0.0331477 0 0 Z " transform="translate(663.75390625,45.61181640625)" style="fill: #44ACD6;"/><path d="M0 0 C8.58 0 17.16 0 26 0 C26 50.82 26 101.64 26 154 C-25.48 154 -76.96 154 -130 154 C-130 151.36 -130 148.72 -130 146 C-81.16 146 -32.32 146 18 146 C18 100.46 18 54.92 18 8 C12.06 8 6.12 8 0 8 C0 5.36 0 2.72 0 0 Z " transform="translate(787,113)" style="fill: #45AED8;"/><path d="M0 0 C8.58 0 17.16 0 26 0 C26 2.64 26 5.28 26 8 C20.06 8 14.12 8 8 8 C8 53.54 8 99.08 8 146 C56.84 146 105.68 146 156 146 C156 148.64 156 151.28 156 154 C104.52 154 53.04 154 0 154 C0 103.18 0 52.36 0 0 Z " transform="translate(39,113)" style="fill: #45AED8;"/><path d="M0 0 C6.40349102 2.78800106 11.69444178 8.6042053 14.8515625 14.75390625 C17.05201087 22.07442228 16.8018283 31.02821271 13.58984375 37.98046875 C9.62385519 44.70589161 4.16813104 49.16323256 -3.34765625 51.41796875 C-11.75775777 52.43928543 -17.59351476 51.09073789 -24.25390625 45.9453125 C-30.52796275 40.32258814 -33.43040866 33.40563152 -33.97265625 25.04296875 C-33.65699931 17.62503058 -30.59667667 10.63586828 -25.30859375 5.3984375 C-23.37203938 3.90794341 -21.47583646 2.61560863 -19.34765625 1.41796875 C-18.73664063 1.04671875 -18.125625 0.67546875 -17.49609375 0.29296875 C-12.23091174 -1.85139629 -5.44068241 -1.34885471 0 0 Z " transform="translate(513.34765625,231.58203125)" style="fill: #F6F6F6;"/><path d="M0 0 C6.37876108 3.64500633 10.88256774 8.58757544 13.1484375 15.64453125 C14.84142081 23.79027883 14.16920667 30.55978825 10.0546875 37.8125 C8.19093924 40.58266134 6.17239689 42.78201033 3.625 44.9375 C3.00625 45.494375 2.3875 46.05125 1.75 46.625 C-3.68451899 49.98161467 -10.12486286 50.91472014 -16.375 49.9375 C-24.09056893 47.3267939 -29.38806596 43.18450961 -33.40234375 36.1328125 C-36.73315723 28.73441573 -36.48112605 20.18227291 -33.8125 12.625 C-30.98442905 6.43112629 -26.95441989 2.50538268 -21.1875 -1 C-13.8624483 -3.04140785 -7.00241068 -3.20019673 0 0 Z " transform="translate(305.375,233.0625)" style="fill: #F7F7F7;"/><path d="M0 0 C1.65936375 1.21154976 1.65936375 1.21154976 3 3 C3.38031673 5.47913933 3.38031673 5.47913933 3.38768005 8.49020386 C3.39758469 9.631427 3.40748932 10.77265015 3.41769409 11.94845581 C3.41094162 13.82804489 3.41094162 13.82804489 3.40405273 15.74560547 C3.41091599 17.06449768 3.41777924 18.38338989 3.42485046 19.74224854 C3.44281911 23.3621961 3.44160636 26.98190175 3.43590808 30.60188055 C3.43282083 33.62373675 3.43890366 36.64554616 3.44494683 39.66739571 C3.45900327 46.79734623 3.45742217 53.92717697 3.44604492 61.05712891 C3.43456867 68.41160771 3.44862826 75.76572165 3.4754414 83.12015235 C3.49760021 89.43448991 3.50423521 95.74871295 3.49836498 102.06308663 C3.49499385 105.83427991 3.49742027 109.60523942 3.51461601 113.37639999 C3.53008568 116.92403558 3.5261301 120.47113118 3.50731087 124.01874542 C3.50186844 125.9393345 3.51613993 127.85994781 3.53100586 129.78048706 C3.52117172 130.92734985 3.51133759 132.07421265 3.50120544 133.25582886 C3.50099616 134.2502342 3.50078688 135.24463955 3.50057125 136.26917839 C2.85545836 139.78853397 1.50208429 141.48383229 -1 144 C-4.15965194 144.51586154 -6.00094569 144.71053549 -8.65936375 142.81984711 C-10.52868375 140.28233808 -10.38019577 138.51911704 -10.38768005 135.38244629 C-10.39758469 134.21309036 -10.40748932 133.04373444 -10.41769409 131.83894348 C-10.41094162 129.91256294 -10.41094162 129.91256294 -10.40405273 127.94726562 C-10.40975442 126.58224426 -10.4167179 125.21722767 -10.42485046 123.85221863 C-10.44281837 120.14356689 -10.44160691 116.43515127 -10.43590808 112.72646904 C-10.43282181 109.6323502 -10.4389023 106.53827709 -10.44494683 103.44416475 C-10.45900201 96.14649446 -10.45742221 88.84894121 -10.44604492 81.55126953 C-10.43455889 74.0172546 -10.44864502 66.48359544 -10.4754414 58.9496274 C-10.49757529 52.48500446 -10.50424114 46.0204934 -10.49836498 39.55583525 C-10.49498907 35.69304607 -10.49745231 31.83048505 -10.51461601 27.96772766 C-10.53004685 24.33638307 -10.52617344 20.70556696 -10.50731087 17.07424355 C-10.50184876 15.10317295 -10.51616784 13.13207884 -10.53100586 11.16105652 C-10.52117172 9.99170059 -10.51133759 8.82234467 -10.50120544 7.61755371 C-10.50099616 6.59918175 -10.50078688 5.58080978 -10.50057125 4.53157806 C-10 2 -10 2 -8.16008091 0.14109039 C-5.07737727 -1.48738727 -3.28391676 -0.97818797 0 0 Z " transform="translate(582,47)" style="fill: #45ADD7;"/><path d="M0 0 C3.234375 0.38671875 3.234375 0.38671875 5.65625 2.5546875 C6.42453125 3.55113281 7.1928125 4.54757813 7.984375 5.57421875 C8.40557617 6.11014648 8.82677734 6.64607422 9.26074219 7.19824219 C10.60308537 8.91472995 11.91857 10.64983686 13.234375 12.38671875 C14.11810567 13.52474875 15.00350787 14.66148283 15.890625 15.796875 C20.41134604 21.60528103 24.8237396 27.49459116 29.234375 33.38671875 C29.27195923 31.94051147 29.27195923 31.94051147 29.31030273 30.46508789 C29.40422806 26.89984033 29.50448439 23.33479442 29.60668945 19.76977539 C29.65009485 18.22457586 29.69176571 16.67932661 29.73168945 15.1340332 C29.78925699 12.91732779 29.85298924 10.70087395 29.91796875 8.484375 C29.94303749 7.44217552 29.94303749 7.44217552 29.96861267 6.37892151 C30.12050329 1.50059046 30.12050329 1.50059046 31.234375 0.38671875 C33.671875 0.19921875 33.671875 0.19921875 36.234375 0.38671875 C38.67566169 2.82800544 38.486562 3.45752689 38.49316406 6.8046875 C38.49946838 7.71903564 38.50577271 8.63338379 38.51226807 9.57543945 C38.5082196 10.56503662 38.50417114 11.55463379 38.5 12.57421875 C38.50287018 14.09438599 38.50287018 14.09438599 38.50579834 15.64526367 C38.50716091 17.79052987 38.50345947 19.93580428 38.49511719 22.08105469 C38.48441882 25.37323447 38.49501019 28.66486853 38.5078125 31.95703125 C38.50649092 34.03776163 38.50392855 36.11849166 38.5 38.19921875 C38.50404846 39.18881592 38.50809692 40.17841309 38.51226807 41.19799805 C38.50596375 42.11234619 38.49965942 43.02669434 38.49316406 43.96875 C38.49157288 44.77546143 38.48998169 45.58217285 38.48834229 46.41333008 C38.234375 48.38671875 38.234375 48.38671875 36.234375 50.38671875 C33.83984375 50.7421875 33.83984375 50.7421875 31.234375 50.38671875 C29.34765625 48.875 29.34765625 48.875 27.546875 46.69921875 C26.86238281 45.879375 26.17789063 45.05953125 25.47265625 44.21484375 C22.24617052 40.13809739 19.0572801 36.03762195 15.921875 31.890625 C12.44981213 27.31824092 8.83286687 22.85972004 5.234375 18.38671875 C5.21455566 19.28503418 5.19473633 20.18334961 5.17431641 21.10888672 C5.09628239 24.43761953 5.00959386 27.76589131 4.91699219 31.09423828 C4.87867826 32.53555615 4.84382957 33.97697043 4.8125 35.41845703 C4.76690054 37.48895761 4.70890056 39.55879308 4.6484375 41.62890625 C4.6170166 42.87526855 4.5855957 44.12163086 4.55322266 45.40576172 C4.234375 48.38671875 4.234375 48.38671875 2.234375 50.38671875 C-0.328125 50.57421875 -0.328125 50.57421875 -2.765625 50.38671875 C-4.36614164 48.78620211 -3.89293972 47.09825753 -3.89501953 44.8828125 C-3.89817169 43.92511963 -3.90132385 42.96742676 -3.90457153 41.98071289 C-3.9025473 40.93906982 -3.90052307 39.89742676 -3.8984375 38.82421875 C-3.89939423 37.76259521 -3.90035095 36.70097168 -3.90133667 35.60717773 C-3.90201864 33.35758403 -3.90016319 31.10798838 -3.89599609 28.85839844 C-3.8906481 25.40164804 -3.89594054 21.94502758 -3.90234375 18.48828125 C-3.90168297 16.30859346 -3.90040182 14.12890575 -3.8984375 11.94921875 C-3.90046173 10.90757568 -3.90248596 9.86593262 -3.90457153 8.79272461 C-3.90141937 7.83503174 -3.89826721 6.87733887 -3.89501953 5.890625 C-3.89422394 5.04314697 -3.89342834 4.19566895 -3.89260864 3.32250977 C-3.69023581 0.23745477 -3.10744632 0.4345158 0 0 Z " transform="translate(541.765625,231.61328125)" style="fill: #F6F6F6;"/><path d="M0 0 C2.5625 1.875 2.5625 1.875 4 4 C3.75 6.75 3.75 6.75 3 9 C0.33901694 10.03005796 -1.41798661 10.22954173 -4.08984375 9.17578125 C-4.84394531 8.80839844 -5.59804688 8.44101563 -6.375 8.0625 C-10.44464589 6.11232027 -13.42511282 5.37207431 -18 6 C-20.40083438 7.35885116 -20.40083438 7.35885116 -22 9 C-21.67 10.98 -21.34 12.96 -21 15 C-19.70906867 15.43966502 -18.41719164 15.87655299 -17.125 16.3125 C-16.30644531 16.58964844 -15.48789062 16.86679688 -14.64453125 17.15234375 C-12.90553367 17.7097477 -11.15212189 18.2243265 -9.38671875 18.69140625 C-3.72308649 20.19540571 -0.16607097 21.83392903 4 26 C5.72922412 29.45844824 5.35136443 33.21165265 5 37 C3.30617248 41.72488729 1.16028832 44.22647445 -3 47 C-9.34691034 49.97477862 -16.31009435 50.32168391 -22.93359375 47.94921875 C-26.36796481 46.25944837 -29.2842039 44.7157961 -32 42 C-32.25 39.5 -32.25 39.5 -32 37 C-31.34 36.34 -30.68 35.68 -30 35 C-27.01859627 35.24173544 -25.29585712 35.782458 -22.875 37.5625 C-18.44818041 39.7759098 -13.8658519 39.55837645 -9 39 C-6.73184019 38.06842579 -6.73184019 38.06842579 -5 37 C-5 35.02 -5 33.04 -5 31 C-8.93049433 28.70721164 -12.47432467 27.6282948 -16.9375 26.6875 C-22.4682556 25.38735969 -26.39912226 23.47487719 -30 19 C-31.56990878 14.29027365 -32.31402157 8.72999309 -30.09375 4.1171875 C-22.61797509 -5.41921768 -10.06537178 -5.03268589 0 0 Z " transform="translate(620,234)" style="fill: #F5F5F5;"/><path d="M0 0 C2.5625 1.875 2.5625 1.875 4 4 C3.75 6.75 3.75 6.75 3 9 C0.33901694 10.03005796 -1.41798661 10.22954173 -4.08984375 9.17578125 C-4.84394531 8.80839844 -5.59804687 8.44101563 -6.375 8.0625 C-10.44464589 6.11232027 -13.42511282 5.37207431 -18 6 C-20.40083438 7.35885116 -20.40083438 7.35885116 -22 9 C-21.67 10.98 -21.34 12.96 -21 15 C-19.70906867 15.43966502 -18.41719164 15.87655299 -17.125 16.3125 C-16.30644531 16.58964844 -15.48789063 16.86679688 -14.64453125 17.15234375 C-12.90553367 17.7097477 -11.15212189 18.2243265 -9.38671875 18.69140625 C-3.72308649 20.19540571 -0.16607097 21.83392903 4 26 C5.72922412 29.45844824 5.35136443 33.21165265 5 37 C3.30617248 41.72488729 1.16028832 44.22647445 -3 47 C-9.34691034 49.97477862 -16.31009435 50.32168391 -22.93359375 47.94921875 C-26.36796481 46.25944837 -29.2842039 44.7157961 -32 42 C-32.25 39.5 -32.25 39.5 -32 37 C-31.34 36.34 -30.68 35.68 -30 35 C-27.01859627 35.24173544 -25.29585712 35.782458 -22.875 37.5625 C-18.44818041 39.7759098 -13.8658519 39.55837645 -9 39 C-6.73184019 38.06842579 -6.73184019 38.06842579 -5 37 C-5 35.02 -5 33.04 -5 31 C-8.93049433 28.70721164 -12.47432467 27.6282948 -16.9375 26.6875 C-22.4682556 25.38735969 -26.39912226 23.47487719 -30 19 C-31.56990878 14.29027365 -32.31402157 8.72999309 -30.09375 4.1171875 C-22.61797509 -5.41921768 -10.06537178 -5.03268589 0 0 Z " transform="translate(259,234)" style="fill: #F5F5F5;"/><path d="M0 0 C2.9375 0.1875 2.9375 0.1875 3.9375 1.1875 C4.0597727 3.40790403 4.11732692 5.63191826 4.1484375 7.85546875 C4.17652788 9.23764161 4.20519246 10.61980289 4.234375 12.00195312 C4.27548561 14.18301807 4.3123648 16.36387204 4.33886719 18.54516602 C4.36665398 20.64905768 4.41254581 22.75196309 4.4609375 24.85546875 C4.48075684 26.11641357 4.50057617 27.3773584 4.52099609 28.67651367 C5.06969182 33.30183208 6.50276628 36.70329271 9.75 40.0625 C13.65222648 42.06935933 16.9980823 41.36815725 21.1875 40.5625 C24.16023977 39.4432368 24.16023977 39.4432368 25.08569336 36.55761719 C26.00962198 32.9021541 26.24114982 29.65877033 26.31640625 25.890625 C26.33340073 25.21578064 26.3503952 24.54093628 26.36790466 23.84564209 C26.42062767 21.70968743 26.46117227 19.57374875 26.5 17.4375 C26.54398953 15.28706122 26.59065886 13.13676804 26.64280701 10.98651123 C26.68918278 9.04615476 26.72677082 7.10559419 26.76391602 5.16503906 C26.9375 2.1875 26.9375 2.1875 27.9375 0.1875 C29.93704746 0.14495644 31.93791636 0.14669217 33.9375 0.1875 C35.90812373 2.15812373 35.14870619 5.96499768 35.17578125 8.66015625 C35.183853 9.41662949 35.19192474 10.17310272 35.20024109 10.95249939 C35.21410423 12.56067603 35.22481636 14.16888237 35.23266602 15.77709961 C35.24976111 18.21591947 35.29360905 20.65334149 35.33789062 23.09179688 C35.34802793 24.65624005 35.35654077 26.22069475 35.36328125 27.78515625 C35.38078934 28.50631119 35.39829742 29.22746613 35.41633606 29.97047424 C35.39334173 35.44791384 33.92943907 39.59213803 30.9375 44.1875 C26.02049107 48.97843178 21.29056621 50.48251689 14.5 50.5625 C9.1136369 50.465339 5.96921175 50.01762616 1.9375 46.1875 C-3.90083179 40.08378949 -5.31361109 35.01322568 -5.328125 26.671875 C-5.33003845 25.97483459 -5.3319519 25.27779419 -5.33392334 24.55963135 C-5.33527634 23.09736771 -5.33164215 21.6350917 -5.32324219 20.17285156 C-5.31246428 17.93006765 -5.32320011 15.68807285 -5.3359375 13.4453125 C-5.33461702 12.02083156 -5.33205693 10.59635112 -5.328125 9.171875 C-5.32586914 7.87991211 -5.32361328 6.58794922 -5.32128906 5.25683594 C-4.96618977 1.04522435 -4.22897924 0.2589171 0 0 Z " transform="translate(372.0625,231.8125)" style="fill: #F7F7F7;"/><path d="M0 0 C4.84534827 2.33294546 7.7343461 5.12013007 10 10 C10.90180959 16.53351848 10.69249498 22.62405021 7.25390625 28.375 C4.65065706 31.74868119 2.06492473 33.64410633 -2.17578125 34.375 C-7.58010698 34.66565281 -10.84767945 33.66949258 -15 30 C-19.44593574 24.23229958 -20.93800858 19.29268641 -20 12 C-18.61466668 7.6302629 -16.69332095 4.66030567 -13.375 1.5 C-8.79002809 -0.53776529 -4.9402323 -0.78850613 0 0 Z " transform="translate(299,240)" style="fill: #040404;"/><path d="M0 0 C4.20923751 2.01862358 6.45678106 4.83912265 8.27734375 9.09765625 C9.73225506 14.0785879 9.98810892 18.77883437 8.0234375 23.64453125 C5.47206877 28.08672017 2.664272 31.19130956 -2.05859375 33.37109375 C-6.72373241 34.17658532 -10.07769936 33.83377978 -14.37109375 31.80859375 C-18.40006344 28.15441193 -20.70128575 25.09707279 -21.40625 19.71875 C-21.64567694 12.129957 -20.57284891 7.25328869 -15.49609375 1.43359375 C-10.90711374 -2.01384894 -5.28821667 -1.61556524 0 0 Z " transform="translate(511.05859375,240.62890625)" style="fill: #040404;"/><path d="M0 0 C0.83729141 -0.0033284 1.67458282 -0.0066568 2.5372467 -0.01008606 C4.31185353 -0.01515881 6.08646992 -0.01749428 7.86108398 -0.01733398 C10.58267881 -0.01951922 13.30386768 -0.03766758 16.02539062 -0.05664062 C17.74609236 -0.05957467 19.46679602 -0.06155939 21.1875 -0.0625 C22.00524399 -0.06968552 22.82298798 -0.07687103 23.66551208 -0.08427429 C29.43133421 -0.06085329 29.43133421 -0.06085329 31.66015625 2.16796875 C31.41015625 4.73046875 31.41015625 4.73046875 30.66015625 7.16796875 C27.77599742 8.61004816 25.24294097 8.26191762 22.03515625 8.23046875 C20.84664063 8.22144531 19.658125 8.21242187 18.43359375 8.203125 C17.51835937 8.19152344 16.603125 8.17992187 15.66015625 8.16796875 C15.67062988 9.36921387 15.68110352 10.57045898 15.69189453 11.80810547 C15.72802912 16.25468987 15.75103282 20.70126123 15.77001953 25.14794922 C15.78009207 27.07440369 15.79375068 29.00084283 15.81103516 30.92724609 C15.83522866 33.69242127 15.84662661 36.45739475 15.85546875 39.22265625 C15.86579132 40.08728485 15.87611389 40.95191345 15.88674927 41.84274292 C15.88714731 43.95250396 15.78280868 46.06177593 15.66015625 48.16796875 C13.66015625 50.16796875 13.66015625 50.16796875 11.16015625 50.41796875 C8.66015625 50.16796875 8.66015625 50.16796875 6.66015625 48.16796875 C6.48469143 45.15487924 6.4288818 42.23486421 6.46484375 39.22265625 C6.46767365 38.33764435 6.47050354 37.45263245 6.47341919 36.540802 C6.48463385 33.70805463 6.50974055 30.87562091 6.53515625 28.04296875 C6.5451844 26.12500456 6.55431053 24.20703542 6.5625 22.2890625 C6.58457736 17.58190999 6.6191158 12.87499259 6.66015625 8.16796875 C5.67273438 8.19117188 4.6853125 8.214375 3.66796875 8.23828125 C2.38664062 8.25632813 1.1053125 8.274375 -0.21484375 8.29296875 C-2.12910156 8.32777344 -2.12910156 8.32777344 -4.08203125 8.36328125 C-7.33984375 8.16796875 -7.33984375 8.16796875 -9.33984375 6.16796875 C-9.52734375 3.60546875 -9.52734375 3.60546875 -9.33984375 1.16796875 C-7.26983055 -0.90204445 -2.8521845 0.0038718 0 0 Z " transform="translate(424.33984375,231.83203125)" style="fill: #FBFBFB;"/><path d="M0 0 C2.5 0.25 2.5 0.25 4.5 2.25 C4.67546482 5.26308951 4.73127445 8.18310454 4.6953125 11.1953125 C4.6924826 12.0803244 4.68965271 12.9653363 4.68673706 13.87716675 C4.6755224 16.70991412 4.6504157 19.54234784 4.625 22.375 C4.61497185 24.29296419 4.60584572 26.21093333 4.59765625 28.12890625 C4.57557889 32.83605876 4.54104045 37.54297616 4.5 42.25 C5.1612085 42.24476318 5.82241699 42.23952637 6.50366211 42.23413086 C9.48159851 42.21342344 12.45951982 42.20035988 15.4375 42.1875 C16.47841797 42.17912109 17.51933594 42.17074219 18.59179688 42.16210938 C19.58115234 42.15888672 20.57050781 42.15566406 21.58984375 42.15234375 C22.50628662 42.14710693 23.42272949 42.14187012 24.36694336 42.13647461 C26.5 42.25 26.5 42.25 27.5 43.25 C27.6875 45.6875 27.6875 45.6875 27.5 48.25 C24.74055395 51.00944605 23.10763302 50.50805677 19.25 50.515625 C17.37828125 50.51949219 17.37828125 50.51949219 15.46875 50.5234375 C13.50421875 50.51183594 13.50421875 50.51183594 11.5 50.5 C10.1903125 50.50773437 8.880625 50.51546875 7.53125 50.5234375 C6.2834375 50.52085937 5.035625 50.51828125 3.75 50.515625 C2.02523438 50.51224121 2.02523438 50.51224121 0.265625 50.50878906 C-2.5 50.25 -2.5 50.25 -4.5 48.25 C-4.75396729 46.27661133 -4.75396729 46.27661133 -4.75878906 43.83203125 C-4.76509338 42.91768311 -4.77139771 42.00333496 -4.77789307 41.0612793 C-4.7738446 40.07168213 -4.76979614 39.08208496 -4.765625 38.0625 C-4.76753845 37.04905518 -4.7694519 36.03561035 -4.77142334 34.99145508 C-4.77278591 32.84618888 -4.76908447 30.70091447 -4.76074219 28.55566406 C-4.75004382 25.26348428 -4.76063519 21.97185022 -4.7734375 18.6796875 C-4.77211592 16.59895712 -4.76955355 14.51822709 -4.765625 12.4375 C-4.76967346 11.44790283 -4.77372192 10.45830566 -4.77789307 9.4387207 C-4.77158875 8.52437256 -4.76528442 7.61002441 -4.75878906 6.66796875 C-4.75719788 5.86125732 -4.75560669 5.0545459 -4.75396729 4.22338867 C-4.34148658 1.01831147 -3.10952275 0.31095228 0 0 Z " transform="translate(331.5,231.75)" style="fill: #FCFCFC;"/><path d="M0 0 C2.5 0.25 2.5 0.25 4.5 2.25 C4.75396729 4.22338867 4.75396729 4.22338867 4.75878906 6.66796875 C4.76509338 7.58231689 4.77139771 8.49666504 4.77789307 9.4387207 C4.7738446 10.42831787 4.76979614 11.41791504 4.765625 12.4375 C4.76753845 13.45094482 4.7694519 14.46438965 4.77142334 15.50854492 C4.77278591 17.65381112 4.76908447 19.79908553 4.76074219 21.94433594 C4.75004382 25.23651572 4.76063519 28.52814978 4.7734375 31.8203125 C4.77211592 33.90104288 4.76955355 35.98177291 4.765625 38.0625 C4.76967346 39.05209717 4.77372192 40.04169434 4.77789307 41.0612793 C4.77158875 41.97562744 4.76528442 42.88997559 4.75878906 43.83203125 C4.75640228 45.04209839 4.75640228 45.04209839 4.75396729 46.27661133 C4.5 48.25 4.5 48.25 2.5 50.25 C0 50.5 0 50.5 -2.5 50.25 C-4.94128669 47.80871331 -4.752187 47.17919186 -4.75878906 43.83203125 C-4.76509338 42.91768311 -4.77139771 42.00333496 -4.77789307 41.0612793 C-4.7738446 40.07168213 -4.76979614 39.08208496 -4.765625 38.0625 C-4.76753845 37.04905518 -4.7694519 36.03561035 -4.77142334 34.99145508 C-4.77278591 32.84618888 -4.76908447 30.70091447 -4.76074219 28.55566406 C-4.75004382 25.26348428 -4.76063519 21.97185022 -4.7734375 18.6796875 C-4.77211592 16.59895712 -4.76955355 14.51822709 -4.765625 12.4375 C-4.76967346 11.44790283 -4.77372192 10.45830566 -4.77789307 9.4387207 C-4.77158875 8.52437256 -4.76528442 7.61002441 -4.75878906 6.66796875 C-4.75719788 5.86125732 -4.75560669 5.0545459 -4.75396729 4.22338867 C-4.34148658 1.01831147 -3.10952275 0.31095228 0 0 Z " transform="translate(467.5,231.75)" style="fill: #F9F9F9;"/></svg>